<?xml version="1.0" encoding="UTF-8"?>
<svg width="512" height="272" viewBox="0 0 512 272" fill="none" xmlns="http://www.w3.org/2000/svg">
  <path d="M32 32H0V240H80C128 240 160 208 160 160C160 112 128 80 80 80H32V32ZM80 192H64V128H80C96 128 112 144 112 160C112 176 96 192 80 192Z" fill="#777BB4"/>
  <path d="M192 32H160V240H240C288 240 320 208 320 160C320 112 288 80 240 80H192V32ZM240 192H224V128H240C256 128 272 144 272 160C272 176 256 192 240 192Z" fill="#777BB4"/>
  <path d="M512 160C512 224 448 272 384 240V208C448 240 480 208 480 160C480 112 448 80 400 80H352V32H400C474 32 512 80 512 160Z" fill="#777BB4"/>
  <path d="M416 160C416 96 352 48 288 80V112C352 80 384 112 384 160C384 208 352 240 304 240H256V288H304C378 288 416 240 416 160Z" fill="#777BB4"/>
</svg>
