<svg xmlns="http://www.w3.org/2000/svg" viewBox="0 0 128 128"><path fill="#6181B6" d="M64 33.039c-33.74 0-61.094 13.862-61.094 30.961s27.354 30.961 61.094 30.961 61.094-13.862 61.094-30.961-27.354-30.961-61.094-30.961zm-15.897 36.993c-1.458 1.364-3.077 1.927-4.86 2.507-1.783.581-4.052.461-6.811.461h-6.253l-1.733 10h-7.301l6.515-34h14.04c4.224 0 7.305 1.215 9.242 3.432 1.937 2.217 2.519 5.364 1.747 9.337-.319 1.637-.856 3.159-1.614 4.515a15.118 15.118 0 01-2.972 3.748zm31.882-4.837c-.457 2.545-1.277 4.606-2.46 6.181-1.183 1.575-2.575 2.731-4.178 3.469-1.602.738-3.729 1.107-6.38 1.107h-5.733l-1.38 7.691h-7.476l1.733-10h-.333l-1.924 10h-7.316l6.515-34h14.227c4.276 0 7.326 1.1 9.152 3.3 1.825 2.2 2.32 5.28 1.553 9.252zm21.912-16.374c-1.147.637-2.577.953-4.292.953h-3.384l-1.733 10h-7.301l1.733-10h-6.039c-.39 0-.752.022-1.085.066l-2.803 15.934h-7.316l6.515-34h14.227c4.225 0 7.306 1.215 9.242 3.432 1.937 2.217 2.519 5.364 1.747 9.337-.319 1.637-.855 3.159-1.614 4.515-.759 1.356-1.699 2.624-2.819 3.748-1.12 1.124-2.422 2.061-3.903 2.811l4.809 9.158h-8.284l-3.7-7.954z"/><path fill="#fff" d="M56.039 54.992h-5.419c-.691 0-1.245.149-1.663.448-.417.3-.752.842-1.003 1.628l-1.374 7.696c-.149.826-.06 1.413.269 1.762.328.35.95.524 1.868.524h2.702c2.097 0 3.72-.363 4.867-1.088 1.146-.726 1.863-2.132 2.152-4.217.252-1.411.075-2.422-.532-3.032-.606-.611-1.661-.916-3.166-.916l.299-1.805zm-2.535 3.883c.106-.593.32-.992.641-1.197.322-.204.756-.307 1.303-.307h1.027c.604 0 1.012.111 1.225.333.213.222.273.584.179 1.088-.106.593-.329 1.012-.67 1.258-.34.245-.814.368-1.421.368h-1.755l.471-1.543zm30.156-3.883h-5.419c-.691 0-1.245.149-1.663.448-.417.3-.752.842-1.003 1.628l-1.374 7.696c-.149.826-.06 1.413.269 1.762.328.35.95.524 1.868.524h2.702c2.097 0 3.72-.363 4.867-1.088 1.146-.726 1.863-2.132 2.152-4.217.252-1.411.075-2.422-.532-3.032-.606-.611-1.661-.916-3.166-.916l.299-1.805zm-2.535 3.883c.106-.593.32-.992.641-1.197.322-.204.756-.307 1.303-.307h1.027c.604 0 1.012.111 1.225.333.213.222.273.584.179 1.088-.106.593-.329 1.012-.67 1.258-.34.245-.814.368-1.421.368h-1.755l.471-1.543zm-32.953-7.883h5.733c1.542 0 2.656.29 3.342.868.686.578.949 1.482.791 2.711-.252 1.41-.988 2.422-2.208 3.032-1.22.61-2.873.916-4.961.916h-2.528l-.916 5.473h-3.639l4.386-13zm.471 5.473h2.627c.87 0 1.525-.127 1.967-.38.441-.254.734-.7.878-1.34.106-.593.03-1.012-.227-1.258-.257-.245-.743-.368-1.458-.368h-2.702l-1.085 3.346z"/></svg>
